<svg id="Layer_1" xmlns="http://www.w3.org/2000/svg" viewBox="0 0 51.9 87.1">
    <style>
        .st0{fill:#559259;} .st1{fill:#404040;} .st2{fill:#67B26D;} .st3{fill:none;stroke:#404040;stroke-width:0.75;stroke-miterlimit:10;} .st4{fill:#559259;stroke:#404040;stroke-width:0.8;stroke-miterlimit:10;} .st5{fill:none;stroke:#404040;stroke-width:0.8;stroke-miterlimit:10;} .st6{fill:#F8F0DE;} .st7{fill:#F8F0DE;stroke:#404040;stroke-width:0.35;stroke-miterlimit:10;} .st8{fill:#DBD4C1;} .st9{fill:#F8F1DE;} .st10{fill:#404040;stroke:#404040;stroke-width:0.2;stroke-miterlimit:10;} .st11{fill:#67B26D;stroke:#404040;stroke-width:0.8;stroke-miterlimit:10;} .st12{fill:#F8F0DE;stroke:#404040;stroke-width:0.75;stroke-miterlimit:10;} .st13{fill:#CCCBC6;} .st14{fill:#434343;} .st15{fill:#CCCBC6;stroke:#434343;stroke-width:0.6;stroke-miterlimit:10;} .st16{fill:#FFFFFF;} .st17{fill:#010101;}
    </style>
    <path class="st0" d="M3.8 54.2c-.5 3.6-.3 4.8 0 5.1.1.1.5.3.7.8.1.3.2.5.4.7.2.1.4.1.5.1 1.2.1 1.2 5.4 1.2 5.4 0 2.3-.1 3.8 0 6.5 0 .8.1 2.7 1.2 4.4.1.1.1.2.2.3.9 1.2 2.2 1.5 4 2 3 .8 5.3.4 6.8.1 1.3-.3 2.3-.5 2.4-1.1.1-.6-1-.8-1.5-2-.3-.6-.5-1.4-.3-2.1.3-1.2 2-1.8 5.1-2.6 6.3-1.6 6.4-1.5 7.5-2 2.4-1.2 3.6-3 5.2-5.3 1.1-1.6 4.3-5.7 3.7-10.7-.2-1.6-.4-5.7-1.6-5S10.1 46.2 8 47.3s-3 3.5-3.7 5.2-.5 1.7-.5 1.7z">
</path>
    <path class="st1" d="M3.4 54.2C3 57.7 3 58.5 4.6 61c2.5 3.8 1 8 1.6 12.4.4 3 1.6 4.8 4.4 5.9 2.6 1 8.8 1.8 10.9-.7.1-.1.1-.3.1-.5-3.4-7.2 6.1-6.4 10-7.9 3.5-1.4 5.8-5 7.6-8.1 2-3.4 3.3-8.6 1.6-12.4-.8-1.8-.9-1.2-2.7-1.4-7.4-.9-15.1-1-22.5-1.4-2.2-.1-5.3-.7-7.4 0-2.9 1-3.9 4.7-4.8 7.3-.1.4.6.6.7.1 1.1-3 2.1-6.3 5.6-6.9 1.5-.3 3.4 0 5 .1 5 .2 9.9.6 14.8 1 2.2.2 4.4.3 6.6.4.7 0 2.4-.3 3 0 2.7 1.4 1.1 8.5.4 10.4-1.4 3.5-4.4 8.3-7.8 9.9-3.5 1.7-9.1.9-11.9 3.7-.8.8-1 1.3-.9 2.5 0-.3 1.1 2.8 1.1 2.1-.1 2.2-3 1.9-4.8 1.9-2.1 0-5.7-.7-7.1-2.6-1.6-2-1.2-5.2-1.2-7.5 0-2 .2-4.3-.2-6.3-.3-1.2-.6-1.6-1.2-2.5-1.5-2.4-1.8-3.2-1.4-6.3.1-.5-.7-.5-.7 0z">
</path>
    <path class="st2" d="M21.1 77.6c.5-1.4 2.3-4.4 7.1-5.2 4.8-.8 8.7 1 10.8-.8 2.1-1.8 3.1-2.2 2.8.6-.2 1.9-1.9 3-5 5.3-.5.4-1.3.9-2.3 1-.8.1-1.3-.1-1.6-.2-1.4-.4-2.8-.4-5.7-.3-3 .1-5 .6-5 .5 0-.1 1.2-.4 2.4-.7.9-.2 4-.6 7.5.7 2.9 1.1 2.3 2 4.7 2.7h7.6s.1 3.3-5.6 4.5c-5.8 1.2-15-2.5-16.5-3.6-1.5-1-1.8-2.2-1.7-2.9.1-.6.5-1.6.5-1.6z">
</path>
    <path class="st3" d="M21.1 77.6c.5-1.4 2.3-4.4 7.1-5.2 4.8-.8 8.7 1 10.8-.8 2.1-1.8 3.1-2.2 2.8.6-.2 1.9-1.9 3-5 5.3-.5.4-1.3.9-2.3 1-.8.1-1.3-.1-1.6-.2-1.4-.4-2.8-.4-5.7-.3-3 .1-5 .6-5 .5 0-.1 1.2-.4 2.4-.7.9-.2 4-.6 7.5.7 2.9 1.1 2.3 2 4.7 2.7h7.6s.1 3.3-5.6 4.5c-5.8 1.2-15-2.5-16.5-3.6-1.5-1-1.8-2.2-1.7-2.9.1-.6.5-1.6.5-1.6z">
</path>
    <path class="st4" d="M21.8 78.1c.5-1.5.9-2.1 1.2-2.3.1-.1.5-.4.7-.9 0-.1.1-.2.2-.3l.5-.5c.9-.7 1.3-1 1.5-.9.2.2-.4 1.3-1.8 3.6 0 0-.8 1.3-1.4 1.3H21.8zM25.9 77.1c.8-1.4 1.2-2.5 1.4-3.3.1-.2.2-.8.6-1.1.2-.2.6-.3 1-.2.3 0 .5.2.5.2.2.1.4.2.4.5.1.3-.1.5-.2.7-.5.9-.9 1.4-1 1.7-.5 1-.3 1.2-.7 1.6-.7.7-2.2.7-2.3.4.1-.2.1-.3.3-.5zM30 77.6c.5.3 1.6.7 2 .3.1-.1.2-.3.5-.8.2-.3.2-.4.3-.4.1-.2.2-.4.4-1.1.2-.6.1-.5.2-.7.1-.2.2-.6.6-1 .3-.2.5-.3.7-.6.1-.2.3-.4.3-.6-.1-.3-1-.4-1.6 0-.2.1-.5.3-1.1 1.3-.5.8-.6 1.2-1 1.8-.3.4-.7 1.1-1.3 1.8zM35.2 78.2c.5-.2 1.3-.5 1.6-1.2 0 0 0-.1.1-.2.1-.4.4-1.8.6-2.2.2-.4.4-1.3.3-1.7 0 0 0-.1-.1-.1-.2-.2-.9.4-1.2.9-.7.8-.9 1.7-1.2 2.5-.2.7-.2 1-.6 1.5-.3.4-.5.6-.5.7.2 0 .7-.2 1-.2zM39.9 73c.1-1 .5-1.6.7-1.9.2-.2.4-.6.6-.5.3.1.3 1.1.1 1.8-.2 1.2-1 2.4-1.3 2.3-.1 0-.2-.4-.1-1.7z">
</path>
    <path class="st5" d="M25.5 74.4c.2-.4.4-.7.5-.9.1-.1.1-.2.3-.3.2-.1.5-.4.7-.3.2.1.4.6.2 1.2M29.5 74.1c.1-.2.2-.4.4-.7.2-.5.3-.5.4-.6.3-.3.7-.3 1-.3.4 0 .9-.1 1.1.2.2.3.2.7.1 1.1">
</path>
    <path class="st1" d="M33.7 74s.4-.1.7-.4c.1-.1.1-.1.2-.3 0-.1.1-.2.1-.4.1-.2.2-.4.4-.5.2-.2.4-.2.6-.3h.7c.1 0 .2.1.3.1l.3.3c.1.3 0 .5 0 .7-.1.2-.2.3-.2.4-.4.4-.7.5-.7.5s0-.1.1-.2.2-.3.2-.5c0-.1.1-.2.1-.3v-.2h-.4c-.1 0-.2.1-.3.1l-.2.2c-.1.1-.2.3-.3.4-.1.1-.3.2-.4.3-.3.1-.5.1-.7.1h-.5z">
</path>
    <path class="st5" d="M37.7 73.8c0-.2 0-1.4.9-2 .1-.1.6-.4 1-.2.3.2.5.8.3 1.5">
</path>
    <path class="st0" d="M21.2 78.3c-.1.6.3 1.7.5 2.6.1.4.3.7.5.9.4.4 1.1.7 1.3.5.1-.1-.1-.4-.2-1.1 0-.2-.1-.8 0-1.4.2-.7.5-.9.4-1.2-.1-.2-.4-.1-1.2-.1-.4 0-1.1-.2-1.3-.2z">
</path>
    <path class="st1" d="M21.2 78.3s0 .2.1.5.2.7.4 1.2.4 1.2.8 1.5c.2.2.5.3.7.4h0c-.1.1 0 0 0 0s0 .1-.1.1v-.1l-.1-.2c-.1-.4-.2-.8-.2-1.2 0-.4.1-.8.2-1.1.1-.2.1-.4.2-.5.1-.1.2-.3.2-.3l.1.1H23c-.6 0-1-.2-1.3-.3-.4-.1-.5-.1-.5-.1zm0 0h1.1c.2 0 .4 0 .7-.1.1 0 .3 0 .4-.1h.3c.2 0 .3.2.3.4 0 .4-.1.4-.2.6-.1.1-.1.3-.1.4-.2.6-.1 1.3.1 1.9l.1.2c0 .1.1.2.1.4v.1c0 .1-.1.1-.1.2l-.1.1s-.1 0-.1.1c-.1.1-.2.1-.3.1H23c-.4-.1-.8-.4-1-.7-.3-.3-.4-.7-.5-1-.1-.3-.1-.6-.2-.9-.1-.5-.2-1-.2-1.3 0-.3.1-.4.1-.4z">
</path>
    <path class="st4" d="M27.5 78c-.8-.2-1.9-.2-2.2.3-.2.3 0 .4.1 1.3.1 1 .5 2 .1 3-.1.2-.1.6.1.9.2.3.6.3.9.3.3 0 .8 0 1-.2.3-.3 0-1-.3-1.7-.2-.5-.4-.8-.4-1.3 0-.2 0-.4.1-.6.1-.2.3-1 1-1.5.3-.2.5-.3.5-.3-.1-.2-.5-.2-.9-.2zM31.6 78.9c-.3-.2-1.5-.8-2-.3-.3.2-.3.5-.3.7-.5 3.6-1.1 4.6-.3 5.2.6.5 1.5.5 1.7.2.2-.3-.7-.8-.8-1.8-.1-1.1.8-2 .9-2.2.5-.6 1.1-.8 1.1-1.3 0-.2-.2-.4-.3-.5zM34.4 81.1c.1-.1.1-.2.2-.4 0-.1.1-.1.1-.2s-.1-.2-.5-.5c-.2-.1-.3-.2-.6-.4-.4-.3-.4-.3-.5-.3-.5 0-.8 1.6-1.2 3.5 0 .1-.1.5-.1.9 0 .5 0 .7.2.9.4.6 1.5.7 1.5.5V85c-.1-.3-.8-1.1-.4-2.1.2-.5.5-.5 1.1-1.8.1.2.2.1.2 0zM36.3 81.3c-.2-.1-.5-.4-.7-.3-.2.1-.2.3-.3.9-.1 1.4-.1 2.4-.5 2.4-.6 0-.3.9.1 1.1.4.2 1.5.6 1.5 0 .1-.6-.3-1-.3-1.4-.2-1 1.7-1.8 1.5-2.3 0-.2-.2-.4-1.3-.4zM38.6 82.1c-.2.4-.7 1.3-.5 2.4.1.3.2.7.6.9.4.2.9 0 1-.3.1-.2-.1-.3-.2-.8 0-.2-.1-.7 0-1.2.1-.4.3-.5.6-1.1.1-.4.1-.5.1-.5-.1-.1-.2.1-.5.1s-.4-.2-.6-.2c-.1 0-.3.2-.5.7zM41.3 81.8c-.3.8-.2 1.4-.2 1.7 0 .4.1.7.3.8.3.1.9-.3 1.1-.8v-.3c.1-1.1.4-1.3.2-1.6-.2-.4-1.2-.4-1.4-.1v.3z">
</path>
    <path class="st5" d="M23.4 81.4c0 .1-.1.8.4 1.3.4.4 1 .7 1.4.5.2-.1.2-.4.4-.9.1-.4.2-.7.2-.9M27.5 82.5c0 .1 0 .4.1.7.1.6.1.7.2.9.1.1.4.3.6.2.2-.1.3-.2.4-.3.3-.5.1-1.2.1-1.5">
</path>
    <path class="st1" d="M30 83.2s.1.3.2.7c0 .1.1.2.1.3 0 .1.1.2.1.2l.1.1s.1 0 .1.1c.1 0 .2.1.3.1H31.7c0-.1.1-.2.1-.2 0-.2.1-.4 0-.5v-.2s.1 0 .2.2c.1.1.2.3.3.5 0 .1.1.3 0 .5 0 .1 0 .2-.1.3-.1.1-.1.2-.3.2-.2.1-.4.1-.6.1h-.5c-.2 0-.4-.1-.5-.2-.1 0-.2-.1-.2-.2l-.2-.2c-.1-.2-.1-.4-.1-.5v-.4c.1-.6.2-.9.2-.9z">
</path>
    <path class="st6" d="M32.6 21.1c1.6-.6 4.6.3 5.9 1 1.3.7 3.7 5.4 4 6.7.2 1.3-.7 2.3-1.4 2.9-.1 0-.2.2-.2.2s.9-.5 1.4-1.4c.3-.5.3-.8.7-1.3.2-.2.4-.3.5-.4.8-.4 3.9-2.1 4.1-2.3.2-.2.9 1.8.7 2.3s-1.5 2.1-2.1 2.6c-.6.5-1.6 2-2.7 2.7-1.2.8-2.8 2.2-4.1 2.2-2.4 0-5-4.1-6.2-10.2">
</path>
    <path class="st1" d="M32.8 21.4c4.8-1.2 12.1 5.5 7.9 10.2-.2.2.2.7.4.6.7-.3 1-.9 1.5-1.4.9-1.1 1.3-1.7 2.6-2.3.3-.2 2.2-1.6 2.6-1.4 1.6.5-.4 2.9-.9 3.4-1.6 1.8-3.5 4-5.7 5-4.8 2.2-6.8-5.9-7.5-9.2-.1-.3-.7-.6-.6-.1.9 4.2 3.4 13.1 9.1 9.5 1.6-1 9.6-7.1 5.5-9.3h-.2c-1.2.8-2.6 1.3-3.8 2.1-1.2.9-1.7 2.6-3 3.2.1.2.3.4.4.6 2.5-2.8 1.2-5.1-.7-8-1.7-2.7-4.8-4.2-8-3.4-.3-.1.1.6.4.5z">
</path>
    <path class="st7" d="M47.8 27.7c0-.2-.1-.6-.1-1-.1-1-.1-1.8.3-2.1.2-.1.7-.1.7.1.1.3.1.8.2.5s.6-1.3 1-1.5c.4-.2 1-.8 1.1.2.1 1 .1 2-.3 2.7-.6 1-.7 2-1.5 2.1-.5.1-.9-.1-1.2-.3">
</path>
    <path class="st1" d="M49.5 25.6s.1-.1.1-.3c.1-.2.2-.5.3-.7.1-.2.2-.5.3-.7.1-.2.2-.3.2-.3v.4c0 .2-.1.5-.2.8-.1.3-.3.5-.4.7-.2 0-.3.1-.3.1zM49.7 26.1s.1-.1.1-.3c.1-.2.2-.4.3-.7.1-.2.2-.5.4-.7.1-.2.2-.3.2-.3s0 .1-.1.3c0 .2-.1.5-.3.7-.1.2-.3.5-.5.6 0 .3-.1.4-.1.4zM49.9 26.6s.1-.1.2-.3c.1-.2.3-.4.4-.7.1-.1.1-.2.2-.4 0-.1.2-.3.2-.3.2-.1.2-.3.2-.3s.1.2-.1.4c-.1.1-.1.2-.2.3 0 .1-.1.3-.1.4-.3.6-.8.9-.8.9z">
</path>
    <path class="st6" d="M15.3 37.5c-.3 0-.7.1-1.1 0-1-.2-1.6-.8-1.9-1.1-.8-.8-1.1-1.5-1.5-2.8-1.6-5.5-2.3-6.2-1.7-7.2.7-1.1 2.1-1.3 2.8-1.4 5.6-.9 10.9-3.1 16.4-4.5.3-.1 1.2-.3 2.4-.2.3 0 .9.2 1.7.5 1 .5 1.6 1.3 2.6 2.8 1.2 1.9 1.9 2.8 2.5 3.9.8 1.4 1.7 3.3 2 5.4.1.6.1 1.4-.3 1.9-.2.2-.5.3-1.3.3h-1.8s2.7-1.2 3.4 1.9c.7 3.2.3 9.1-.8 10.4-1.1 1.2-3.6 2.3-5.8 2.4-2.2.1-1.8 1.1-2.8 1.7-1.1.5-3.1-1.5-4.5-1.6-1.4-.1-6.3-.2-8.3-.4-1.9-.3-8-1.9-8.3-4s1.1-7.1 1.8-8.1c.2-.3.5-.9 1-1 .4-.1.7.2 1.2.5.4.4 1.2.7 2.3.6z">
</path>
    <path class="st1" d="M15.3 37.5c-.6.1-1.2.1-1.8-.2-.6-.2-1-.6-1.5-1.1-.9-.9-1.2-2.1-1.6-3.3-.4-1.2-.7-2.3-1.1-3.4-.1-.5-.3-1.1-.4-1.7-.1-.3-.1-.6-.1-1 .1-.3.2-.6.5-.8.9-1 2.3-1.1 3.4-1.3 1.2-.2 2.4-.5 3.5-.8 2.3-.6 4.6-1.4 6.9-2.1 1.2-.4 2.3-.7 3.5-1.1l1.8-.5c.6-.2 1.2-.2 1.9-.2 1.3.1 2.5.5 3.4 1.5.9.9 1.5 2 2.2 3l2 3.1c.6 1.1 1.1 2.2 1.5 3.4.2.6.3 1.2.5 1.8.1.6.2 1.3 0 2-.1.2-.2.3-.3.5-.2.2-.4.2-.5.3-.3.1-.7.1-1 .1H34.7L36 35c.7-.3 1.4-.4 2.1-.1.7.2 1.2.8 1.5 1.5.2.3.2.6.3 1 .1.3.1.6.2 1 .1.7.1 1.3.1 1.9 0 1.3 0 2.6-.2 3.9-.1.6-.2 1.3-.3 1.9-.2.6-.3 1.3-.8 1.9-1 1-2.2 1.5-3.4 1.9-.6.2-1.3.3-1.9.4-.7.1-1.3 0-1.8.3-.2.1-.4.3-.6.6-.2.3-.4.6-.7.7l-.1.1c-.1.1-.1 0-.1.1-.1 0-.2.1-.3.1-.2 0-.4 0-.6-.1-.3-.1-.6-.2-.9-.4-1.2-.6-2.1-1.4-3.4-1.3l-4-.4c-1.3-.1-2.5-.1-3.8-.3-1.3-.2-2.5-.6-3.7-1-1.2-.4-2.4-.9-3.5-1.7-.5-.4-1.1-.9-1.1-1.6-.1-.6 0-1.3.1-1.9.2-1.3.5-2.5.8-3.7.2-.6.4-1.2.7-1.8.1-.3.3-.6.5-.8.2-.3.4-.5.7-.6.3-.1.7.1.9.3.3.2.5.3.8.4.6.2 1.2.3 1.8.2zm0 0c-.6 0-1.3 0-1.9-.2-.3-.1-.6-.3-.9-.4-.3-.2-.6-.3-.9-.2-.3.1-.5.3-.7.6-.2.3-.4.5-.5.8-.3.6-.4 1.2-.6 1.8-.3 1.2-.6 2.5-.8 3.7-.1.6-.1 1.3 0 1.9.1.6.5 1 1 1.4 1 .7 2.2 1.2 3.4 1.6 1.2.4 2.4.7 3.7.9 1.2.2 2.5.2 3.8.3l3.8.1c.3 0 .6 0 1 .1.3.1.7.2 1 .3.6.3 1.1.6 1.7.9.3.1.6.3.8.3.1 0 .3.1.4 0H29.9l.1-.1c.2-.1.4-.3.6-.6.2-.3.5-.6.8-.7.7-.3 1.4-.3 2-.4.6-.1 1.2-.2 1.8-.4 1.2-.4 2.4-.9 3.2-1.8.4-.4.5-1 .7-1.6.1-.6.2-1.2.3-1.9.1-1.3.2-2.5.1-3.8 0-.6-.1-1.3-.1-1.9 0-.3-.1-.6-.2-.9-.1-.3-.1-.6-.3-.9-.2-.5-.6-1-1.1-1.1-.5-.2-1.1-.1-1.7.1l-.1-.6h1.8c.3 0 .6 0 .8-.1.1 0 .2-.1.3-.1.1-.1.1-.2.2-.3.2-.5.1-1.1 0-1.6-.1-.6-.2-1.2-.4-1.7-.4-1.1-.9-2.2-1.4-3.3l-1.9-3.1c-.7-1-1.3-2.1-2.1-2.9-.8-.8-2-1.2-3.1-1.3-1.2-.1-2.3.3-3.5.6-1.2.3-2.3.7-3.5 1-2.3.7-4.6 1.4-7 2-1.2.3-2.4.6-3.6.8l-1.8.3c-.6.2-1.1.4-1.5.8-.2.2-.4.5-.4.7-.1.3 0 .6 0 .8.1.6.3 1.2.5 1.7.4 1.2.7 2.3 1.1 3.5.3 1.2.6 2.4 1.5 3.3.4.4.9.9 1.4 1.1.7.6 1.3.6 1.9.5z">
</path>
    <path class="st8" d="M10.1 46.4s-.2-.1-.4-.4c-.2-.3-.6-.8-.7-1.4-.1-.7 0-1.4.2-2.2.2-.8.4-1.6.7-2.4.3-.8.5-1.6.9-2.3.2-.4.3-.7.8-1 .1 0 .1-.1.2-.1h.2c.2 0 .3.1.4.2.2.1.3.2.4.3.4.4.9.6 1.3.7.3.1.6.1.6.1h-.6c-.4 0-.9-.1-1.5-.4-.1-.1-.3-.2-.4-.3h-.1-.1c-.1.1-.3.5-.4.8-.3.7-.5 1.5-.8 2.3-.3.8-.5 1.6-.8 2.3-.2.7-.4 1.4-.4 2 0 .6.2 1.1.3 1.4 0 .3.2.4.2.4zM19.7 38.5s.5 0 1.2-.2c.4 0 .8-.1 1.2-.2.4-.1.9-.2 1.3-.4l.6-.3c.2-.1.3-.3.5-.4.3-.3.5-.7.7-1 .2-.3.3-.6.4-.8.1-.2.1-.3.1-.3s.1.5-.2 1.3c-.1.4-.3.8-.6 1.2-.1.2-.3.4-.5.6-.2.2-.4.3-.7.4-1 .4-2 .4-2.8.4-.7-.1-1.2-.3-1.2-.3zM34.9 35.8s.1-.1.3-.2c.2-.1.5-.2.9-.3.4-.1.9-.1 1.4 0 .3.1.5.2.8.3l.3.3.3.3c.3.5.5 1 .5 1.5.1.5.1.9.1 1.3 0 .8-.2 1.3-.2 1.3s0-.1-.1-.3c0-.2-.1-.5-.2-.9-.2-.7-.4-1.7-.8-2.4-.1-.1-.1-.2-.2-.2l-.2-.2c-.2-.1-.3-.2-.5-.3-.4-.1-.8-.2-1.1-.2h-1.3zM12.3 36.1c-.1-.1-.2-.2-.4-.3-.1-.1-.3-.4-.6-1.1-.1-.2-.1-.4-.2-.7-.3-.9-.4-1.3-.4-1.4.1-.9 1.2-1 1.5-2.2 0-.2.1-.4.1-.4-.1 2-.1 4.1 0 6.1z">
</path>
    <path class="st9" d="M36.4 27.8c1 1 3.2 3.4 3.4 6 0 .4 0 .9-.2 1.3-.9 1.3-4.1.4-4.3.3">
</path>
    <path class="st1" d="M36.4 27.8s.7.5 1.5 1.4c.8.9 1.8 2.3 2.2 3.9.1.4.2.8.1 1.3 0 .5-.3.9-.7 1.1-.4.3-.8.3-1.1.4h-1c-.6-.1-1.1-.2-1.4-.3-.3-.1-.5-.2-.5-.2s.2 0 .5.1.8.1 1.4.1c.3 0 .6 0 .9-.1.3-.1.7-.2.9-.3.3-.2.4-.5.4-.8 0-.3 0-.7-.1-1.1-.2-.7-.5-1.5-.8-2.1-.3-.6-.7-1.2-1.1-1.7-.3-.5-.6-.9-.9-1.2-.2-.4-.3-.5-.3-.5zM19.5 38.4s.5-.1 1.2-.2l1.2-.3c.4-.1.9-.2 1.3-.5.2-.1.4-.2.6-.4.2-.1.3-.3.5-.5.3-.3.5-.7.7-1 .4-.6.5-1.1.5-1.1s0 .5-.3 1.2c-.1.3-.3.8-.6 1.1-.2.2-.3.4-.5.5-.2.2-.4.3-.7.4-.9.4-2 .5-2.7.6-.7.3-1.2.2-1.2.2zM30.7 45.6c.4.2.7.4.6.6 0 .1-.1.2-.3.2-.4.1-.9 0-.9-.1 0 0 0-.1.1-.2.2-.2.3-.4.5-.5z">
</path>
    <path class="st1" d="M30.7 45.6s.2 0 .4.2c.1 0 .1.1.2.2.1 0 .1.2 0 .3-.2.2-.4.2-.6.2-.2 0-.4 0-.6-.1 0 0-.1-.1-.1-.2s.1-.1.1-.1l.2-.2c.2-.2.4-.3.4-.3zm0 0s-.1.2-.3.4c0 .1-.1.1-.1.2-.1.1 0 0 0 .1.1.1.3.1.5.1s.4 0 .5-.1v-.1c0-.1-.1-.1-.1-.2-.3-.3-.5-.4-.5-.4z">
</path>
    <path class="st10" d="M17.5 36.4c.2 0 .4.1.4.2v.1c-.1.1-.2.1-.2.1-.1 0-.3 0-.4-.1-.1-.1 0-.2 0-.3.1.1.2 0 .2 0zM38.9 33.7c.2-.3.5 0 .5.2s0 .4-.3.4c-.2-.1-.2-.6-.2-.6z">
</path>
    <path class="st11" d="M10.9 51.1c-1.8-.3-3.1-1.4-3.5-2.8-.3-.9-.2-2.4.5-2.8 1-.5 2.2 1.4 4.8 2.8 5.3 2.9 8.4-.9 13.9 1.9 1.1.6 3.3 1.9 4.5 1.1.5-.3.9-1.1 1.9-1.5.5-.2 1-.2 1-.2.9-.1 1.2.4 2.7-.7 2-1.4 2.7-2.9 3.1-3.8 0-.1.1-.2.1-.2.3 0 .9 2.8-.1 4.6-1.2 2-4.2 2.2-5.8 3.4-.2.1-1.4 1.2-1.8 1.7l-.1.1c-.3.3-1.2-.4-1.9-.8-.6-.3-1.2-.4-2.4-.6-3.1-.5-7.9 0-12-.7-1-.2-2.8-.6-4.9-1.5z">
</path>
    <path class="st12" d="M10.9 26.6c-.1-.2-.4-.5-.8-.6-.4-.1-.8 0-1.3.3-.7.4-1.7 1-2.5 2.3-.5.9-.5 1.2-1.1 1.8-.2.2-.5.5-.8 1 0 0-.3.4-.5.8-.4.7-1 1.9-1 3.4.1 2.5 2.3 4.7 3.6 6 0 0 1.6 1.6 1.5 1.8 0 0-.1.1-.2 0-.9-.1 1.4 1.8-.9 1.9-2.2.3-1.1-1.3-.9-1.1.1.3-.1.6 0 .7.1.3 1.5.2 1.6-.2 0-.2-.4-.3-.4-.7-.1-.4.3-.5.2-1 0-.4-.3-.6-.6-.8 0 0-.3-.2-.7-.1-1.2.3-2.3 2-1.7 3.2s1.6 2.3 3.8.7c2.7-1.9.1-7.9-.3-8.9-.1-.2-.8-1.9-1.9-2.2l-.3-.1s1 .4 1.8.3c.7 0 1.7-.4 2.9-2 .8-1.2 1.2-2.2 1.3-2.7.1-.3.1-.6.1-.6 0-.3 0-.5-.1-.6">
</path>
    <path class="st13" d="M11 25.6c-.4.1-1.1.3-1.8.1-1.2-.4-1.3-1.5-2.4-2.2-1.6-1.1-3 .3-4.4-.4C.3 21.9.9 17.3 1 16.2c.2-1.7.7-5.9 4-8.4 2.4-1.8 3.7-.6 6.6-2.9 1.9-1.5 2.1-2.6 4-3.4 1.6-.7 3.1-.6 4.5-.6 2.4.1 6.1.3 8.3 3 1.6 1.9 2.5 5.2 1.3 7.9-2.3 5.4-11 3.4-17 10.9-.7 1.2-1.3 2.2-1.7 2.9z">
</path>
    <path class="st14" d="M11 25.6s-.1 0-.2.1c-.2 0-.4.1-.7.1-.3 0-.7 0-1.2-.2s-.8-.6-1.2-1.1c-.4-.5-.8-.9-1.4-1.2-.6-.3-1.3-.1-2.1 0-.4.1-.9.1-1.3 0-.1 0-.2-.1-.3-.1-.1 0-.1 0-.2-.1l-.1-.1c-.3 0-.5-.2-.7-.4-.6-.8-.8-1.8-.9-2.8-.1-1-.1-2.1 0-3.2s.3-2.2.6-3.3c.6-2.2 1.8-4.6 4-6 .6-.3 1.2-.6 1.8-.7.7-.2 1.3-.3 1.9-.5 1.2-.3 2.3-1 3.3-1.9 1-.9 1.7-2.1 2.9-2.7 1.2-.7 2.6-.9 3.9-.9 2.6.1 5.5.1 7.8 1.5 1.2.7 2.1 1.8 2.7 2.9.6 1.2 1 2.5 1 3.8 0 1.3-.2 2.6-.9 3.7S28 14.4 27 15c-2.1 1.1-4.2 1.6-6.1 2.3-1.9.7-3.5 1.5-4.8 2.4-1.3.9-2.3 1.9-3.1 2.8-.8.9-1.3 1.6-1.6 2.2l-.4.9zm0 0s.2-.3.4-.8c.3-.5.8-1.3 1.5-2.3.8-.9 1.7-2 3.1-2.9 1.3-1 3-1.9 4.8-2.6 1.9-.8 4-1.4 6-2.4 1-.5 1.9-1.3 2.4-2.2.6-1 .9-2.2.8-3.4-.1-2.4-1.2-5-3.4-6.3-2.2-1.4-5-1.5-7.6-1.7-1.3 0-2.6.2-3.8.8-1.2.6-1.9 1.7-2.9 2.6-1 .9-2.1 1.6-3.4 2-.5.1-1.1.2-1.7.4-.6.2-1.2.5-1.7.8-2 1.4-3.1 3.7-3.7 5.8-.3 1.1-.4 2.2-.5 3.3-.1 1.1-.2 2.1-.1 3.1s.3 1.9.8 2.6c.1.1.2.3.4.4l.1.1s.1 0 .1.1h.3c.4.1.8.1 1.2 0 .8-.1 1.6-.3 2.3.1.7.3 1.1.9 1.5 1.3.3.5.7.9 1.1 1 .4.2.8.2 1.1.2.3 0 .5-.1.7-.1.1.1.2.1.2.1z">
</path>
    <path class="st14" d="M3.2 18.2c-.1 0-.2.1-.3.2-.1.1-.2.2-.2.3-.1.2-.2.4-.2.7-.1.5-.1 1 0 1.5v-.1c.3.4.7.8 1.1 1 .4.2.8.3 1.3.1.4-.2.8-.5.8-.9.1-.4-.1-.8-.5-1.1-.3-.3-.8-.4-1.3-.3-.2.1-.4.2-.5.3 0 .1-.1.1 0 .3 0 .1 0 .2.1.3.1.2.3.4.5.5.2.1.4.3.6.3h.1s.1-.1.1-.2c.1-.1.1-.2.2-.3 0-.1.1-.2 0-.4 0-.1-.2-.2-.3-.2.1 0 .3 0 .4.1-.1.1-.1.3-.1.4 0 .1-.1.3-.1.4 0 .1-.1.1-.1.2-.1.1-.2.1-.2.1-.3 0-.6-.1-.8-.3-.2-.2-.5-.3-.6-.6-.1-.1-.2-.3-.2-.5 0-.1 0-.3.1-.5.1-.3.5-.5.7-.6.6-.2 1.2 0 1.7.3s.9 1 .7 1.6c-.1.3-.2.6-.5.8-.2.2-.5.4-.8.5-.3.1-.6.2-.9.1-.3 0-.6-.1-.9-.3-.5-.3-.9-.7-1.2-1.2 0-.5 0-1.1.2-1.6.1-.3.2-.5.4-.7l.3-.3c.2.1.3.1.4.1zM5.9 9.7s-.1.2-.2.5-.1.8.1 1.4c.1.3.3.6.4.9.1.3.3.7.4 1.1.1.4.2.8.1 1.2 0 .2-.1.5-.3.6-.2.2-.4.3-.6.3-.4.1-.9 0-1.3-.2s-.7-.6-.8-1c-.1-.4 0-.8.2-1.2.1-.2.2-.3.4-.4.2-.1.4-.1.6-.1.3.2.4.5.5.7.1.3 0 .5-.1.7-.2.3-.4.3-.4.4 0 0 .2-.1.4-.4.1-.2.1-.4 0-.6-.1-.2-.2-.5-.4-.6-.2-.1-.5.1-.6.4-.2.3-.2.6-.1.9.1.7 1 1 1.7.9.4-.1.6-.2.7-.6.1-.3 0-.7-.1-1.1-.1-.4-.2-.7-.3-1l-.3-.9c-.2-.6-.1-1.2.1-1.5-.2-.3-.1-.4-.1-.4zM13.2 4.6s.1.1.4.2c.1.1.3.1.5 0s.3-.3.5-.5c.3-.5.6-1 1-1.6.2-.3.5-.6.8-.8.3-.2.7-.3 1.1-.4h.6c.2 0 .5.2.5.5s-.1.4-.2.6c-.1.2-.2.3-.3.5-.2.3-.6.5-.9.5-.3.1-.7.1-1 0-.1-.1-.3-.2-.3-.4s.1-.3.2-.4c.2-.2.3-.3.5-.3.2-.1.3 0 .4.1v0c0-.1-.2-.1-.3 0-.1.1-.3.2-.4.4-.1.2-.2.4.1.5.2.1.5 0 .8 0 .3-.1.6-.2.8-.5.1-.1.2-.3.2-.4.1-.1.1-.4.1-.4 0-.1-.4-.2-.7-.1-.3 0-.7.1-1 .3-.3.2-.5.4-.7.7-.4.5-.8 1-1.1 1.5-.2.1-.3.4-.6.4-.3.1-.5 0-.6-.1-.3-.2-.4-.3-.4-.3z">
</path>
    <path class="st6" d="M12.6 22.3c-1.1-2.9-2.3-4-3.3-4.5-.3-.2-1-.5-1.4-1.2-.3-.5-.3-1-.2-2.2.3-3.8.8-4.4 1-4.7.2-.2.4-.4 1.3-.8 2.2-1.1 3.3-.9 4.7-1.5 2.8-1.2 2.3-3.8 5.2-4.7 1.1-.3 2-.2 2.4-.1 2.3.3 4.3 2 5.1 4.1.6 1.6.5 3.4-.1 4.1v.1c-.1.5 3.5 1.9 2.8 4.1-.4 1.5-1.1 2.2-1.8 2.4-.4.1-.7.1-1.1.1-1 0-1.8-.3-2.5-.6-.8-.3-.8-.4-1.2-.4-.4 0-.9.2-1.6.8-.9.9-1.1 1.6-1.7 2.5-.2.3-1.2 1.7-2.4 2.4-2 1.1-4.2.5-5.2.1z">
</path>
    <path class="st1" d="M12.6 22.3s-.1-.2-.3-.7c-.2-.5-.5-1.1-1-1.9-.3-.4-.6-.8-1-1.2-.2-.2-.4-.4-.7-.5-.3-.2-.6-.3-.8-.5-.6-.4-1.1-1-1.1-1.8-.1-.8 0-1.5.1-2.3.1-.8.2-1.6.4-2.5.1-.4.2-.9.5-1.3s.7-.6 1.1-.8c.8-.4 1.7-.8 2.7-1 1-.2 1.9-.3 2.8-.9.8-.5 1.4-1.3 2-2.2.5-.9 1.4-1.8 2.4-2.1 2.1-.7 4.5-.1 6.2 1.4 1.7 1.5 2.6 3.8 2.1 6.1-.1.3-.2.6-.4.8l.2.2c.4.3.8.6 1.2 1 .4.3.8.7 1.1 1.2.3.5.4 1.1.2 1.7-.3 1-.8 2-1.8 2.6-.2.1-.5.2-.8.2h-.8c-.5 0-1-.1-1.4-.3-.5-.1-.9-.3-1.3-.5l-.6-.3c-.1-.1-.3-.1-.5 0-.7.2-1.4.8-1.8 1.4-.5.6-.8 1.3-1.2 1.9-.4.6-.9 1.1-1.4 1.6-1 .9-2.2 1.2-3.2 1.2s-1.7-.2-2.2-.4l-.7-.1zm0 0s.3.1.7.2c.5.1 1.2.3 2.1.2.9 0 2-.4 3-1.3.5-.4.9-1 1.3-1.6.4-.6.7-1.3 1.2-2 .2-.3.5-.7.9-.9.3-.3.7-.6 1.2-.7.2-.1.5-.1.8 0l.6.3c.4.2.8.3 1.3.4.4.1.9.2 1.3.2.5 0 .9 0 1.3-.2.8-.4 1.2-1.3 1.5-2.2.3-.8-.4-1.7-1.1-2.3-.4-.3-.8-.6-1.2-1l-.3-.3c-.2 0-.3-.1-.3-.1.1-.3 0-.1 0-.2l.1-.1.3-.6c.4-2-.3-4.2-1.9-5.6-.8-.7-1.7-1.2-2.7-1.5-1-.3-2.1-.3-3 .1-1 .3-1.7 1-2.3 1.9-.6.9-1.2 1.8-2.1 2.3-.9.6-1.9.7-2.9.9-.9.2-1.8.5-2.6 1-.3.1-.7.3-1 .6-.3.3-.4.7-.5 1.2-.2.8-.3 1.7-.4 2.5-.1.8-.2 1.6-.1 2.3 0 .7.5 1.3 1 1.6.3.2.6.3.8.5.3.2.5.4.7.5.4.4.7.8 1 1.2.5.8.8 1.5 1 1.9.2.5.3.7.3.8z">
</path>
    <path class="st1" d="M19.8 6.3l.7-.7c.5-.4 1.2-.8 2-1 .4-.1.8 0 1.2.1.4.1.7.3 1 .4.5.3.9.4.9.4s-.4-.1-.9-.3c-.3-.1-.6-.3-1-.4-.3-.1-.7-.1-1.1-.1-.8.1-1.5.5-2 .9s-.8.7-.8.7z">
</path>
    <path class="st15" d="M18.3 27.8c1.7.7 5.3 2.9 10.2 0s5.3-6.3 4.3-8.7c-1-2.4-2.5-4.8-2.8-4.1-.3.7-1.1 2.6-2.9 2.5-1.8-.1-3-1.4-3.7-1s-1.6.8-1.6.8-1.1 2.7-2.9 4-3.1 1.6-4.5 1.5-1.6-1-2.3 0-1.7 3.2-.9 3.3c.8.2 1.3.8 2.8.9 1.6.1 4.3.8 4.3.8z">
</path>
    <path class="st13" d="M17.9 25.2s-1.3.3-1.7 0c-.3-.3-.7-1.3-1.4-1.3s-2.1 0-2.6.7 1.5 1.3 1.9 1.1c.4-.2.3-.9.3-.9s-.5-.3-.9 0">
</path>
    <path class="st14" d="M17.9 25.2l-1.2.3h-.4c-.1 0-.1-.1-.2-.1l-.1-.1c-.2-.2-.3-.3-.4-.5-.1-.2-.3-.3-.4-.4-.2-.1-.2-.1-.4-.1-.4 0-.8 0-1.2.1-.4.1-.8.2-1 .4 0 0 0 .1-.1.1v.1c0 .1.2.2.3.3.3.2.7.3 1.1.4.2 0 .3 0 .3-.2.1-.1.1-.4.1-.5v.1c-.2-.2-.6-.3-.9-.1.1-.1.3-.2.5-.2s.4 0 .5.1v.1c.1.2.1.4 0 .7 0 .1-.1.2-.3.3h-.3c-.5 0-.9-.1-1.3-.3-.2-.1-.4-.2-.6-.5-.1-.1-.1-.4-.1-.6 0-.1 0 0 .1-.2 0-.1.1-.1.1-.2.4-.4.9-.5 1.3-.6.4-.1.9-.1 1.3-.1.2 0 .6.1.7.3.2.2.3.4.4.5l.3.5.1.1h.1c.1 0 .2.1.3.1.5.3.9.3 1.4.2zM26.1 24s-.2-.2-.7-.2c-.5 0-1.1.2-1.8.6-.3.2-.7.5-1 .8-.3.3-.5.8-.4 1 .2.3.7.6 1.1.7.5.1 1 .1 1.4 0 .4-.1.9-.4 1.1-.8.1-.2.1-.3.1-.5-.1-.1-.3-.3-.5-.3-.4-.1-.9-.1-1.3.1-.2.1-.4.2-.5.3-.2.1-.3.2-.2.3 0 .1.2.2.4.2.2.1.3.1.5.1.3.1.6.1.7-.1 0-.2-.1-.4-.2-.5-.1-.1-.1-.2-.1-.2l.1.1c.1.1.3.2.3.5 0 .2-.2.2-.4.3h-.5c-.2 0-.4 0-.5-.1-.2-.1-.4-.1-.6-.3v-.1-.2c0-.1 0-.2.1-.2.1-.1.2-.2.2-.3.2-.2.4-.3.6-.4.4-.2 1-.3 1.6-.2.3.1.6.2.8.5 0 .1.1.2.1.3v.3c0 .2-.1.4-.2.5-.4.5-.9.9-1.4 1.1-.6.2-1.2.2-1.8 0-.6-.2-1.1-.4-1.4-1-.2-.4-.1-.7.1-.9.1-.2.3-.4.5-.6.4-.3.7-.6 1.1-.8.7-.4 1.5-.5 1.9-.4.6.1.8.4.8.4z">
</path>
    <g>
        <path class="st14" d="M29.3 18.2s.2-.1.6-.1c.2 0 .4 0 .7.1.2.1.5.2.7.5.2.3.3.6.4 1 0 .4-.1.8-.2 1.2-.2.4-.4.7-.8 1-.4.3-1 .4-1.4.2-.5-.2-.8-.6-1-1-.2-.5-.1-1 .1-1.4.2-.4.6-.8 1-.8s.8.1 1.1.3c.1.1.3.3.3.5s-.2.3-.3.4c-.2.2-.4.3-.6.3-.2.1-.4-.1-.4-.1l-.1-.1.1.1c.1.1.2.1.4 0s.3-.2.5-.4.2-.3-.1-.5c-.2-.1-.5-.2-.8-.1-.3.1-.5.3-.6.6-.1.3-.1.7 0 1 .1.3.4.6.7.7.3.1.6.1.9-.1.3-.2.5-.5.7-.8.2-.3.3-.6.3-.9 0-.3-.1-.6-.2-.8-.3-.5-.8-.7-1.1-.7-.7-.2-.9-.1-.9-.1z">
</path>
    </g>
    <g>
        <path class="st14" d="M22.7 18.9s.2 0 .4-.1h1c.1 0 .2-.1.3-.2.2-.1.3-.2.3-.2v.4c-.1.1-.1.3-.2.4 0 0-.2.1-.2.2-.1 0-.2.1-.3.1-.9-.1-1.3-.6-1.3-.6z">
</path>
    </g>
    <g>
        <path class="st14" d="M21.9 18.7V17.9h.2c.3-.1.7-.1.9-.2l.2-.1.2-.1c.1 0 .2-.1.3-.1.2-.1.5-.2.7-.2-.1.2-.3.4-.5.6-.1.1-.2.2-.3.2l-.2.1h-.1c-.2.1-.4.1-.6.2-.2 0-.4 0-.6-.1l.2-.1c-.1.2-.3.4-.4.6z">
</path>
    </g>
    <g>
        <path class="st1" d="M17.6 12.7c-.2.3-.6.6-1 .7-.2.1-.4.1-.6.1l-.6.1c-.8.1-1.5.1-2.3.1l.3-.2c-.3.5-.6.9-1 1.3l-.6.6c-.2.2-.5.3-.7.4.4-.4.6-.8.9-1.3.3-.4.5-.9.7-1.3l.1-.2H15.2l.6.1h.5c.6-.2.9-.2 1.3-.4z">
</path>
    </g>
    <g>
        <path class="st1" d="M21.8 10.8c0 .3 0 .7.1 1 .1.3.3.6.5.8.2.3.4.6.5.8.2.3.3.6.5.7.1.1.2.1.4.2.1 0 .2.2.2.3.1.1.1.2.1.3 0 .4-.2.7-.4 1-.2.3-.5.5-.9.6-.3.1-.7.2-1.1 0h-.2l-.1-.1-.2-.2c-.1-.1-.3-.2-.4-.4l.5.3.2.1.1.1.1.1c.3.1.6 0 .9-.1.3-.1.5-.3.7-.6.2-.2.3-.5.3-.8v-.1c-.1-.1 0-.1-.1-.1-.1-.1-.3-.1-.5-.3-.3-.3-.5-.6-.6-.9-.2-.3-.3-.6-.5-.9l-.2-.5c-.1-.1-.1-.3-.2-.5.2-.1.2-.4.3-.8z">
</path>
    </g>
    <g>
        <path class="st16" d="M13.4 17.1c1.1-.5 1.8-1.1 2.2-1.6.2-.2.8-.9.8-.9s-.2.2-.2.4c.1.2.4.1.7.2.2 0 1.5.2 1.3.4-.2.1-1 .8-1.9 1.1-1 .4-2.6.8-2.6.8l-.3-.4z">
</path>
        <path class="st1" d="M13.4 17.1c.8-.5 1.6-1 2.2-1.8l.5-.6.1-.1.1-.1.1-.1h.1c0 .1 0-.1.1.1v.1c-.1.1-.1.2-.1.2 0-.1 0 0 .1 0h.4c.3 0 .5.1.7.1.1 0 .2 0 .4.1.1.1.2 0 .4.2 0 0 .1.1.1.2s-.1.1-.1.2l-.1.1-.2.3-.3.2c-.4.3-.8.5-1.3.7-.2.1-.5.1-.7.2l-.7.2c-.5.1-.9.2-1.4.4l-.4-.6zm0 0l.4.5c.5-.2.9-.3 1.4-.5l.7-.2c.2-.1.5-.2.7-.2.4-.2.8-.4 1.2-.7l.3-.2.1-.1.1-.1s-.1.2 0 .2c0 0-.1-.1-.2-.1l-.3-.1c-.2 0-.5-.1-.7-.1h-.4c-.1 0-.1 0-.2-.1 0 0-.1 0-.1-.1l-.1-.1v-.1c0-.3.1-.4.2-.5v.1c.1.2.1.1.1.1h.1c.1-.1 0 0 0 0l-.1.1-.2.1-.5.5c-.7.7-1.6 1.3-2.5 1.6z">
</path>
    </g>
    <path class="st17" d="M13.4 17.1c.1 0 .4-.1.6-.3.2-.1.5-.3.9-.6s.5-.5.7-.5c.1 0 .2.1.3.3.2.2.3.4.2.6-.1.2-.3.3-.6.4-.1 0-.1 0-.6.2-.4.1-.4.1-.6.2-.1 0-.3.1-.6.1-.1 0-.1-.1-.2-.2 0 0 0-.1-.1-.2z">
</path>
    <g>
        <path class="st16" d="M22.2 12.6c.7-.7 1.2-1.2 2-1.3s1.8-.4 1.9-.5c.1-.1-.9 1.5-.9 1.5l-1.6.6s-.5.1-.8 0-.6-.3-.6-.3z">
</path>
        <path class="st1" d="M22.2 12.6c.4-.4.7-.7 1.1-1 .4-.3 1-.4 1.5-.5l.7-.2c.1 0 .2-.1.4-.1H26.2s.1 0 .1.1v.2c-.3.5-.5.9-.8 1.3h-.1c-.5.2-1.1.4-1.6.6H23c-.4-.1-.6-.2-.8-.4zm0 0c.4.2.9.2 1.4.1.5-.2 1-.5 1.6-.7l-.2.1c.3-.4.6-.8.9-1.3v-.1.1c0 .1.1.1.1.1h.2-.1l-.1.1c-.1 0-.3.1-.4.1l-.8.2c-.5.1-1 .2-1.4.4-.4.2-.8.5-1.2.9z">
</path>
    </g>
    <path class="st1" d="M23 11.8c.2.5.7.8 1.2.7 0 0 .8-.2.7-1.2v-.1c-.1-.2-.9.2-1.3.3-.3.1-.5.2-.6.3z">
</path>
    <g>
        <path class="st1" d="M21.7 11.2s.2-.4.6-.9c.4-.5.9-1.2 1.6-1.7.2-.1.4-.2.7-.3h.7c.4 0 .8.2 1.1.4.6.4.8.7.8.7s-.1 0-.3-.1c-.2-.1-.4-.1-.7-.2-.3-.1-.6-.1-1-.1h-.4-.1c-.1 0-.3.1-.4.2-.6.4-1.2 1-1.7 1.4-.2.2-.5.3-.6.4-.2.1-.3.2-.3.2z">
</path>
    </g>
</svg>
